<svg width="125" height="24" viewBox="0 0 125 24" fill="none" xmlns="http://www.w3.org/2000/svg">
<path d="M9.40379 2.48801H0.987793V0.600006H29.0518V2.48801H20.6038V23H9.40379V2.48801Z" fill="black"/>
<path d="M33.7523 0.600006H43.0963L53.0163 23H40.9203L37.5603 15.576H30.5203L27.6403 23H25.3043L33.7523 0.600006ZM36.6643 13.624L33.7523 7.12801L31.2243 13.624H36.6643Z" fill="black"/>
<path d="M47.4928 0.600006H57.8608L65.1888 17.112L71.3328 0.600006H73.7968L65.3488 23H57.4128L47.4928 0.600006Z" fill="black"/>
<path d="M87.3576 23.16C83.4962 23.16 80.7335 22.5947 79.0695 21.464C77.4269 20.3333 76.6056 18.6053 76.6056 16.28V0.600006H88.8296V16.28C88.8296 17.7947 89.1602 18.904 89.8215 19.608C90.5042 20.2907 91.4002 20.632 92.5096 20.632C94.9842 20.632 96.2215 19.1813 96.2215 16.28V0.600006H98.1096V16.28C98.1096 18.0933 97.7256 19.5013 96.9576 20.504C96.1895 21.4853 95.0375 22.1787 93.5015 22.584C91.9655 22.968 89.9176 23.16 87.3576 23.16Z" fill="black"/>
<path d="M101.487 0.600006H124.751V2.48801H112.751V10.776H118.639V12.696H112.751V21.08H124.751V23H101.487V0.600006Z" fill="black"/>
</svg>
